PathFileType	4	(X/Y/Z)	T1_P1_NoVision_NoMovement_4_0-615.trc
DataRate	CameraRate	NumFrames	NumMarkers	Units	OrigDataRate	OrigDataStartFrame	OrigNumFrames
60	60	7	27	m	60	307	615
Frame#	Time	RHip			RKnee			RAnkle			RBigToe			RSmallToe			RHeel			LHip			LKnee			LAnkle			LBigToe			LSmallToe			LHeel			Neck			Head			Nose			RShoulder			RElbow			RWrist			RThumb			RIndex			RPinky			LShoulder			LElbow			LWrist			LThumb			LIndex			LPinky		
		X1	Y1	Z1	X2	Y2	Z2	X3	Y3	Z3	X4	Y4	Z4	X5	Y5	Z5	X6	Y6	Z6	X7	Y7	Z7	X8	Y8	Z8	X9	Y9	Z9	X10	Y10	Z10	X11	Y11	Z11	X12	Y12	Z12	X13	Y13	Z13	X14	Y14	Z14	X15	Y15	Z15	X16	Y16	Z16	X17	Y17	Z17	X18	Y18	Z18	X19	Y19	Z19	X20	Y20	Z20	X21	Y21	Z21	X22	Y22	Z22	X23	Y23	Z23	X24	Y24	Z24	X25	Y25	Z25	X26	Y26	Z26	X27	Y27	Z27
308	5.133333333333334	-66.33832951688053	3788.591904564001	-545.8911864418006	293.75119196030596	3881.8253734913387	-548.7098238836517	653.28461537245	4188.880194202635	-598.9010611043141	704.5237016574371	3959.4107684381897	-489.5272538450391	728.5295813658316	4037.75144191749	-599.8356252582012	690.5591604430876	4210.782289603662	-572.1908141902953	-108.13998842536608	3900.4961752756008	-356.0976560252826	239.87185520221522	4010.5323211307614	-360.6099821947222	590.4282774437611	4199.54492001965	-385.4712401695012	681.6204896535828	4135.414298440451	-327.91274227527765	634.1832742741394	4134.2422207721065	-284.26176428995075	623.7983469476002	4235.485788324226	-413.0132142177391	-654.3767435156177	3656.8657731091407	-465.9958298010424	-896.5745470204938	3502.7378058586446	-413.34290696082456	-740.817375195772	3522.8905385223075	-385.6409368385006	-555.1638361986818	3616.1646549318793	-608.1130247154058	-290.4232146968014	3732.8430934757207	-690.66654753009	-28.405084279710778	3677.245499950912	-606.9689745031436	76.50965032443318	3793.954207399638	-575.4275283994109	93.30163412194351	3770.0308572192803	-569.6853075479037	83.92769268108343	3732.268510785006	-580.6763982169856	-604.1740007477553	3746.559377998539	-335.22637233053825	-386.58954301712225	3981.53288203333	-338.84391376092253	-120.69294864284552	3951.278887880824	-295.1534619834101	16.61446157630772	3933.2359824362225	-323.7079559625173	34.62856407714492	3935.730139195538	-287.5772148014481	3.226909290578763	4009.6395254493987	-259.1641434564562
309	5.15	-66.3267968844357	3788.601947024712	-545.9065653552501	294.0842289393527	3880.3098292188356	-547.6146950283785	654.2196439005902	4185.750382372758	-596.913224050259	707.3347597517196	3966.5401550955776	-493.02356536069595	730.7508079883092	4039.028916541326	-600.1070240210825	692.1225200685512	4211.422661565554	-571.9257725175959	-108.13948444068093	3900.4657954074955	-356.0962307804985	240.46664760325277	4011.0445235394955	-360.4403403151093	590.1937053917826	4196.155587238119	-382.93462308502365	682.2210280442932	4137.95324494622	-330.1216299987493	634.3196108823877	4137.760356754964	-287.3141799752047	623.1101395545919	4229.2812946246195	-411.5679907720139	-654.3807958355346	3656.7272092458534	-465.4685243781445	-896.2974326945068	3502.7788806833805	-413.3268351976525	-740.6677179638114	3523.0265556733643	-385.6850408806	-555.1644388668387	3616.2028161381236	-608.1247372047643	-291.48500277109963	3732.5090958694627	-690.7472859039758	-28.424427737308683	3677.2293925142258	-607.0317045743351	76.5402253943825	3793.8944315388367	-575.4441271859474	94.54240024595839	3770.2859844750346	-569.6770490409508	84.1227366057855	3734.2269274823543	-582.3012672754273	-604.1542263885539	3746.5576656929015	-335.2228182682833	-386.5920274669629	3981.488305888298	-338.8411870125774	-119.78738106870333	3951.2094108983483	-295.2554527029957	16.65446320614129	3933.4273409681437	-324.1180121198323	34.60509790900215	3935.972586279579	-287.58274385746233	4.090645510385012	4005.25307618053	-256.15344970137994
310	5.166666666666667	-66.3327358775646	3788.641207862858	-545.9178376429962	293.66353054193985	3878.279031565167	-546.3304042796755	655.0200838378707	4181.707309677158	-593.5745293604778	709.074507737934	3968.370773405074	-494.97623558855054	730.7466941469745	4038.8771924827715	-599.7939647417584	692.6493920145343	4209.393600238767	-569.7865574755858	-108.14819239962577	3900.4533142837295	-356.0931600558608	240.3905858448268	4011.4840086884824	-359.96421723726684	588.6922819034949	4192.037201544505	-380.0910073971033	683.0847806090484	4141.801016265238	-332.68992381180976	634.8354118920834	4139.71319323401	-289.18072669261807	624.1589206051225	4230.462859768097	-413.1330926354287	-654.3718435916688	3656.4610386728837	-464.4575519395526	-896.6541671387002	3502.6887288897947	-413.329825887296	-740.070220009592	3523.4347548952264	-385.8152556727507	-555.1681212275308	3616.2424667417163	-608.1388512477738	-292.4077145345139	3732.2442440046216	-690.8124054716973	-29.01439678535273	3677.1530853065524	-607.1160235094961	76.60040306558153	3793.846004151646	-575.4542461658762	95.7553610050098	3771.3215596991868	-569.8444949554087	84.25816026577576	3738.916630870258	-583.480560156653	-604.1165108203332	3746.480807497409	-335.1490667952978	-386.5868943633901	3981.429381044985	-338.82495398965835	-118.97485326109646	3951.9619885131397	-295.4871595917496	16.512593211155863	3933.255003414948	-323.41615892748894	34.561292316610675	3935.8970964776495	-287.34230947313495	5.215316802389931	3999.6753728709023	-252.27373286433402
311	5.183333333333334	-66.34593216249681	3788.6893629725537	-545.9227747652504	292.99886845839217	3874.891605736088	-543.9095677981072	654.6080989269134	4177.441537542671	-589.6068777347928	708.1984010728986	3966.857635588295	-495.6116618943775	727.7415733181422	4037.180931805033	-598.9931564671316	690.735704995712	4203.127504559178	-565.0320894231024	-108.15328549464343	3900.4532133814537	-356.0938248748879	240.07404930266605	4011.7176461912836	-359.16493089836445	587.0060319931076	4189.419061883937	-378.46153987223977	683.610655708301	4143.875002564691	-333.8862471280639	635.8949511194243	4140.707136346331	-290.187821139359	625.2979344634413	4235.277713055884	-415.05678231373577	-654.353251025465	3656.301571144814	-463.8121223750926	-896.880164054641	3502.609127502035	-413.2965168291221	-739.3029163719251	3523.9207839832097	-385.96691213278706	-555.1717460939371	3616.2936627952204	-608.1620153672411	-292.37433218028457	3732.276776944497	-690.776018759566	-30.429129620024582	3676.957611017468	-607.1598483913923	76.6548917230987	3793.834139960834	-575.4517747987181	95.89369341870515	3774.0618700289633	-570.4907546516527	84.27135383782948	3741.749473646985	-583.4757909942464	-604.0726120599792	3746.2944969742634	-335.0056160276101	-386.5725588253535	3981.37130282574	-338.79713536723057	-117.97547711806588	3953.7771596822613	-295.96892005108424	16.90534528190646	3933.354136288802	-322.5747115544651	34.484006416561456	3934.067731351248	-286.1008596077802	6.182723513250484	3995.479482127745	-249.30458891425562
312	5.2	-66.36364911437845	3788.712444294697	-545.9202298737436	292.42692333554396	3867.886495261479	-538.4447782866544	652.8199308251162	4173.157007202366	-585.9513729416938	704.7602364408265	3964.2336503020065	-494.93093388373353	722.178556294424	4034.590663024583	-598.1086799075089	687.3166979276757	4195.096623409132	-559.3458865078068	-108.13952652677798	3900.4390548869123	-356.096072873052	239.81226839409095	4010.948115937036	-358.5934886809831	586.8851722869811	4188.826645502746	-378.02984692109067	683.3472011493714	4142.165796510431	-332.609755933972	638.0987218760864	4144.100786167806	-291.3548739976997	625.9692607112563	4239.81247743298	-415.2528759939648	-654.3326543267043	3656.2889367094003	-463.6707476879029	-896.1152002715418	3502.702986490017	-413.1755730820984	-738.4528924319218	3524.4320733921127	-386.1332463464578	-555.1772811928379	3616.371830499914	-608.2068542296959	-291.26012456332353	3732.6165838751185	-690.6323544427722	-32.13231826831919	3676.4570584009243	-606.8630385914018	76.66803199342695	3793.878703864204	-575.4441472016742	94.92095552836338	3778.1290160387957	-571.533037278023	84.2334728177064	3739.7896733371017	-582.8199889446204	-604.0474798337968	3746.159354164212	-334.924329652816	-386.5494745242396	3981.3608859734427	-338.7773925375866	-116.6095764445907	3957.846878498798	-296.9706334082991	18.334678543182374	3934.3767154975117	-323.022690558209	34.51271359004056	3931.607967544552	-284.9793682343589	7.120494843100278	3994.13379272085	-248.1934909497865
313	5.216666666666667	-66.37913380927341	3788.676401525087	-545.9024108690804	292.24050097234334	3860.692429374561	-532.679770523547	650.9768749471802	4169.838243691535	-583.83973655493	700.7335564585514	3959.8662927796076	-492.7544604642481	716.5763047060345	4032.5378237333084	-597.7435653922944	685.2632250130664	4190.706239246146	-556.3412268960983	-108.10325697619237	3900.3958070872845	-356.0952485053041	239.81667753102818	4008.1063648420377	-358.5549204613123	587.9186526232289	4188.222158931925	-377.4730878383622	682.5640046589964	4138.700566587312	-330.2946153445107	641.0014777758521	4151.9376991011995	-292.5647017520503	626.0329835673796	4242.477735798474	-414.25584343929853	-654.3212944955218	3656.342179083111	-463.75027583028094	-894.617857996023	3502.9349350018556	-413.00767213934876	-737.7402805827637	3524.8617602481386	-386.28428726197535	-555.1872789422779	3616.4729340371296	-608.2691819701679	-289.78734165350807	3733.026899478691	-690.4694523771151	-32.98386283937285	3674.761417120526	-605.3232788933731	76.641992093584	3793.9252514887194	-575.4217294526064	93.77437348643112	3780.2271862161206	-572.0757801651821	84.21547173428725	3735.315489437481	-582.2385996814463	-604.0979186902135	3746.6127395882986	-335.2826256951768	-386.5201567740581	3981.400883967002	-338.77890644905966	-114.98522467190821	3963.5240945647174	-298.33850017763046	20.426039063023733	3936.191780902976	-325.1310807083686	34.77444123650538	3930.551331040642	-285.5106593295006	8.532932548240199	3995.0988889844575	-248.51085920241542
314	5.233333333333333	-66.38428455089313	3788.6003591061994	-545.871767279529	292.69545701240554	3859.391288806656	-531.4394747965384	650.2115104969622	4168.280303292115	-583.5260694982296	698.312124123189	3953.886400302821	-490.60028673816	713.6045359860484	4032.0736968611504	-598.29439467657	685.7620845600131	4192.009754125613	-557.5172452463158	-108.06891787660533	3900.3492272014983	-356.0980706104906	240.3692083690379	4003.837169488197	-358.63313507260364	588.1066290247421	4185.573825830907	-375.86005943867724	681.442968979676	4136.143826777206	-328.90062614214605	642.7643854088866	4160.99921209586	-292.82167315976886	625.265982179629	4243.21850237205	-413.49620946424335	-654.3207625594633	3656.3961629472547	-463.8366336846978	-893.3594196683457	3503.146575403508	-412.88727866334	-737.4217453110035	3525.1044287794894	-386.3841080461806	-555.1931502175327	3616.5518215182856	-608.3197941825425	-288.65677477972827	3733.288139037696	-690.3809932004576	-32.39019917816209	3671.0051207975152	-601.9537311594164	76.61405943645029	3793.884300403744	-575.3717817980476	93.09246959513371	3777.9743828975247	-571.4797391714977	84.20284244601787	3731.9324876983937	-581.7867418894227	-604.2965165818447	3748.359848268208	-336.5622544615019	-386.48924573636054	3981.4277117309975	-338.7921828342183	-113.57546819369688	3966.6462507379147	-299.18521015470424	22.153360421819922	3937.896119563176	-327.82662566970413	35.10978576851833	3930.8142096212414	-287.03285905731036	10.329387809434317	3996.9923532430216	-249.53433886894402
